<?xml version="1.0" encoding="utf-8"?>
<!-- Generator: Adobe Illustrator 25.3.1, SVG Export Plug-In . SVG Version: 6.00 Build 0)  -->
<svg version="1.1" xmlns="http://www.w3.org/2000/svg" xmlns:xlink="http://www.w3.org/1999/xlink" x="0px" y="0px"
	 viewBox="0 0 1000 1000" style="enable-background:new 0 0 1000 1000;" xml:space="preserve">
<style type="text/css">
	.st0{fill:#008B07;}
	.st1{font-family:'Sylfaen';}
	.st2{font-size:200px;}
	.st3{fill:#B95800;}
	.st4{fill:none;stroke:#FFFFFF;stroke-miterlimit:10;}
	.st5{fill:none;stroke:#FFFFFF;stroke-width:20;stroke-miterlimit:10;}
	.st6{fill:none;stroke:#FFFFFF;stroke-width:20.25;stroke-miterlimit:10;}
	.st7{fill:none;stroke:#FFFFFF;stroke-width:13;stroke-miterlimit:10;}
	.st8{fill:none;stroke:#FFFFFF;stroke-width:18;stroke-miterlimit:10;}
	.st9{fill:#FFFFFF;stroke:#FFFFFF;stroke-width:11;stroke-miterlimit:10;}
</style>
<g id="Layer_2">
	<path class="st0" d="M755.42,1000H244.58C109.5,1000,0,890.5,0,755.42V244.58C0,109.5,109.5,0,244.58,0h510.85
		C890.5,0,1000,109.5,1000,244.58v510.85C1000,890.5,890.5,1000,755.42,1000z"/>
	<text transform="matrix(1.0677 0 0 1 162.4859 956.3847)" class="st1 st2">Buamta</text>
</g>
<g id="Layer_4">
	<path class="st3" d="M665.28,438.9H348c0-87.58,71.03-158.58,158.64-158.58S665.28,351.32,665.28,438.9z"/>
</g>
<g id="Layer_1">
	<g id="Layer_3">
		<line class="st4" x1="371.7" y1="449.08" x2="660.34" y2="449.08"/>
	</g>
	<path class="st5" d="M148.51,821.77c0-110.9,45.92-210.54,118.86-278.98"/>
	<path class="st5" d="M744.5,546.51c70.67,68.32,114.94,166.35,114.94,275.26"/>
	<path class="st5" d="M761.84,449.08H660.34c-0.92-88.35-69.32-159.67-153.55-159.67c-84.22,0-152.62,71.32-153.55,159.67H251.38
		c0-148.24,114.27-268.42,255.22-268.42C647.57,180.66,761.84,300.83,761.84,449.08z"/>
	<path class="st5" d="M660.33,663.37c0.01,0,0.02-0.01,0.03-0.02c37.44-29.76,66.83-70.12,84.14-116.83
		c11.2-30.21,17.34-63.07,17.34-97.44H660.34c-0.92-88.35-69.32-159.67-153.55-159.67c-84.22,0-152.62,71.32-153.55,159.67H251.38
		c0,32.97,5.65,64.54,15.99,93.71c17.16,48.46,47.26,90.29,85.87,120.85c0.01,0.01,0.02,0.02,0.04,0.03"/>
	<polyline class="st6" points="660.34,449.08 531.96,449.08 475.99,449.08 353.25,449.08 	"/>
	<path class="st7" d="M631.19,657.94"/>
	<path class="st7" d="M381.09,655.76"/>
	<path class="st7" d="M353.25,449.08c0.93-88.35,69.33-159.68,153.55-159.68c84.24,0,152.63,71.33,153.55,159.68"/>
	<line class="st5" x1="389.87" y1="555.59" x2="623.73" y2="555.59"/>
	<line class="st5" x1="360.1" y1="498.77" x2="653.5" y2="498.77"/>
	
		<ellipse transform="matrix(0.2288 -0.9735 0.9735 0.2288 -136.8298 1154.337)" class="st8" cx="660.17" cy="663.53" rx="0.65" ry="0.38"/>
	
		<ellipse transform="matrix(0.5952 -0.8036 0.8036 0.5952 -390.1423 551.629)" class="st8" cx="352.42" cy="663.03" rx="0.53" ry="3.08"/>
	<path class="st9" d="M389.81,551.05h2.02c2.26,0,4.09,1.83,4.09,4.09v0.92c0,2.26-1.83,4.09-4.09,4.09h-2.02
		c-2.26,0-4.09-1.83-4.09-4.09v-0.92C385.72,552.88,387.55,551.05,389.81,551.05z"/>
	<path class="st9" d="M625.07,551.05h2.02c2.26,0,4.09,1.83,4.09,4.09v0.92c0,2.26-1.83,4.09-4.09,4.09h-2.02
		c-2.26,0-4.09-1.83-4.09-4.09v-0.92C620.99,552.88,622.82,551.05,625.07,551.05z"/>
	<path class="st9" d="M359.09,494.23h2.02c2.26,0,4.09,1.83,4.09,4.09v0.92c0,2.26-1.83,4.09-4.09,4.09h-2.02
		c-2.26,0-4.09-1.83-4.09-4.09v-0.92C355,496.06,356.83,494.23,359.09,494.23z"/>
	<path class="st9" d="M652.49,494.23h2.02c2.26,0,4.09,1.83,4.09,4.09v0.92c0,2.26-1.83,4.09-4.09,4.09h-2.02
		c-2.26,0-4.09-1.83-4.09-4.09v-0.92C648.4,496.06,650.23,494.23,652.49,494.23z"/>
	<path class="st9" d="M143.97,822.36v-1.17c0-2.5,2.03-4.53,4.53-4.53h0.01c2.5,0,4.53,2.03,4.53,4.53v1.17
		c0,2.5-2.03,4.53-4.53,4.53h-0.01C146,826.89,143.97,824.86,143.97,822.36z"/>
	<path class="st9" d="M854.92,822.5l-0.03-1.27c-0.05-2.47,1.93-4.51,4.43-4.57l0.01,0c2.5-0.05,4.57,1.91,4.62,4.38l0.03,1.27
		c0.05,2.47-1.93,4.52-4.43,4.57l-0.01,0C857.05,826.94,854.97,824.98,854.92,822.5z"/>
</g>
<g id="Layer_5">
</g>
</svg>
